<svg preserveAspectRatio="none" width="100%" height="100%" overflow="visible" style="display: block;" viewBox="0 0 32 32" fill="none" xmlns="http://www.w3.org/2000/svg">
<g id="Group">
<path id="Vector" d="M30.47 12.19H32V19.81H30.47V12.19Z" fill="var(--fill-0, black)"/>
<path id="Vector_2" d="M28.95 3.05V0H27.43V1.52H25.9V3.05H24.38V7.62H28.95V6.1H30.47V4.57H32V3.05H28.95Z" fill="var(--fill-0, black)"/>
<path id="Vector_3" d="M28.95 19.81H30.47V22.86H28.95V19.81Z" fill="var(--fill-0, black)"/>
<path id="Vector_4" d="M28.95 9.14H30.47V12.19H28.95V9.14Z" fill="var(--fill-0, black)"/>
<path id="Vector_5" d="M27.43 22.86H28.95V25.91H27.43V22.86Z" fill="var(--fill-0, black)"/>
<path id="Vector_6" d="M25.9 25.91H27.43V27.43H25.9V25.91Z" fill="var(--fill-0, black)"/>
<path id="Vector_7" d="M22.86 27.43H25.9V28.95H22.86V27.43Z" fill="var(--fill-0, black)"/>
<path id="Vector_8" d="M22.86 7.62H24.38V9.14H22.86V7.62Z" fill="var(--fill-0, black)"/>
<path id="Vector_9" d="M21.33 9.14H22.86V10.67H21.33V9.14Z" fill="var(--fill-0, black)"/>
<path id="Vector_10" d="M19.81 28.95H22.86V30.48H19.81V28.95Z" fill="var(--fill-0, black)"/>
<path id="Vector_11" d="M19.81 13.72H21.33V18.29H19.81V13.72Z" fill="var(--fill-0, black)"/>
<path id="Vector_12" d="M19.81 10.67H21.33V12.19H19.81V10.67Z" fill="var(--fill-0, black)"/>
<path id="Vector_13" d="M19.81 1.52H22.86V3.05H19.81V1.52Z" fill="var(--fill-0, black)"/>
<path id="Vector_14" d="M18.28 18.29H19.81V19.81H18.28V18.29Z" fill="var(--fill-0, black)"/>
<path id="Vector_15" d="M18.28 12.19H19.81V13.72H18.28V12.19Z" fill="var(--fill-0, black)"/>
<path id="Vector_16" d="M12.19 30.48H19.81V32H12.19V30.48Z" fill="var(--fill-0, black)"/>
<path id="Vector_17" d="M16.76 13.72H18.28V15.24H16.76V13.72Z" fill="var(--fill-0, black)"/>
<path id="Vector_18" d="M13.71 19.81H18.28V21.33H13.71V19.81Z" fill="var(--fill-0, black)"/>
<path id="Vector_19" d="M15.24 15.24H16.76V16.76H15.24V15.24Z" fill="var(--fill-0, black)"/>
<path id="Vector_20" d="M13.71 10.67H18.28V12.19H13.71V10.67Z" fill="var(--fill-0, black)"/>
<path id="Vector_21" d="M12.19 0H19.81V1.52H12.19V0Z" fill="var(--fill-0, black)"/>
<path id="Vector_22" d="M12.19 18.29H13.71V19.81H12.19V18.29Z" fill="var(--fill-0, black)"/>
<path id="Vector_23" d="M12.19 12.19H13.71V13.72H12.19V12.19Z" fill="var(--fill-0, black)"/>
<path id="Vector_24" d="M9.14 28.95H12.19V30.48H9.14V28.95Z" fill="var(--fill-0, black)"/>
<path id="Vector_25" d="M10.66 13.72H12.19V18.29H10.66V13.72Z" fill="var(--fill-0, black)"/>
<path id="Vector_26" d="M9.14 1.52H12.19V3.05H9.14V1.52Z" fill="var(--fill-0, black)"/>
<path id="Vector_27" d="M6.09 27.43H9.14V28.95H6.09V27.43Z" fill="var(--fill-0, black)"/>
<path id="Vector_28" d="M6.09 3.05H9.14V4.57H6.09V3.05Z" fill="var(--fill-0, black)"/>
<path id="Vector_29" d="M7.62 12.19H9.14V9.14H12.19V7.62H21.33V6.1H19.81V4.57H12.19V6.1H9.14V7.62H7.62V9.14H6.09V12.19H4.57V19.81H6.09V22.86H7.62V24.38H9.14V25.91H12.19V27.43H19.81V25.91H22.86V24.38H24.38V22.86H25.9V19.81H27.43V12.19H25.9V10.67H24.38V19.81H22.86V22.86H21.33V24.38H12.19V22.86H9.14V19.81H7.62V12.19Z" fill="var(--fill-0, black)"/>
<path id="Vector_30" d="M4.57 25.91H6.09V27.43H4.57V25.91Z" fill="var(--fill-0, black)"/>
<path id="Vector_31" d="M4.57 4.57H6.09V6.1H4.57V4.57Z" fill="var(--fill-0, black)"/>
<path id="Vector_32" d="M3.05 22.86H4.57V25.91H3.05V22.86Z" fill="var(--fill-0, black)"/>
<path id="Vector_33" d="M3.05 6.1H4.57V9.14H3.05V6.1Z" fill="var(--fill-0, black)"/>
<path id="Vector_34" d="M1.52 19.81H3.05V22.86H1.52V19.81Z" fill="var(--fill-0, black)"/>
<path id="Vector_35" d="M1.52 9.14H3.05V12.19H1.52V9.14Z" fill="var(--fill-0, black)"/>
<path id="Vector_36" d="M0 12.19H1.52V19.81H0V12.19Z" fill="var(--fill-0, black)"/>
</g>
</svg>
